<?xml version="1.0" standalone="no"?>
<!DOCTYPE svg PUBLIC "-//W3C//DTD SVG 20010904//EN"
 "http://www.w3.org/TR/2001/REC-SVG-20010904/DTD/svg10.dtd">
<svg version="1.0" xmlns="http://www.w3.org/2000/svg"
 width="512.000000pt" height="512.000000pt" viewBox="0 0 512.000000 512.000000"
 preserveAspectRatio="xMidYMid meet">
<metadata>
Created by potrace 1.14, written by Peter Selinger 2001-2017
</metadata>
<g transform="translate(0.000000,512.000000) scale(0.100000,-0.100000)"
fill="#000000" stroke="none">
<path d="M837 5104 c-217 -42 -402 -157 -545 -339 -36 -46 -109 -203 -126
-270 -25 -99 -35 -258 -22 -335 2 -14 8 -47 12 -75 4 -27 9 -54 10 -60 2 -5 6
-23 9 -40 25 -129 112 -330 212 -492 l44 -72 -63 -123 c-122 -236 -194 -433
-257 -698 -27 -117 -66 -333 -76 -425 -11 -107 -18 -211 -19 -323 l-3 -124
241 -119 c247 -122 386 -194 514 -267 41 -23 75 -42 77 -42 3 0 193 -109 225
-130 8 -5 35 -21 60 -36 211 -126 421 -284 511 -384 35 -40 73 -82 84 -94 11
-12 34 -39 50 -60 146 -188 247 -311 299 -364 101 -105 221 -182 331 -213 66
-18 246 -18 310 0 49 14 165 67 175 80 3 4 21 17 40 28 32 20 157 144 205 203
11 14 83 104 160 200 76 96 175 211 220 255 195 196 637 467 1310 803 149 75
273 139 276 144 11 18 1 294 -17 448 -12 98 -46 299 -66 380 -11 47 -21 92
-23 101 -2 9 -13 49 -25 90 -54 187 -114 339 -207 524 l-75 151 40 59 c180
274 279 631 247 895 -43 366 -319 653 -696 723 -89 17 -284 15 -349 -3 -25 -7
-55 -14 -68 -16 -80 -15 -240 -93 -346 -169 -98 -70 -275 -260 -334 -357 -18
-30 -33 -33 -97 -19 -22 5 -62 12 -90 16 -27 3 -61 8 -75 10 -123 18 -449 24
-608 11 -114 -10 -143 -13 -285 -38 -37 -6 -68 -9 -70 -7 -225 326 -459 501
-752 565 -91 20 -281 24 -368 8z m450 -1723 c71 -210 86 -263 169 -565 79
-293 213 -891 239 -1071 1 -11 14 -92 29 -180 15 -88 29 -178 32 -200 4 -22 8
-47 9 -55 2 -8 6 -37 9 -65 4 -27 8 -61 11 -75 2 -14 7 -43 10 -64 5 -37 4
-39 -12 -24 -68 57 -131 105 -218 165 -105 73 -370 243 -379 243 -3 0 -34 17
-68 38 -35 21 -106 61 -158 89 -52 28 -124 67 -160 87 -36 20 -151 80 -257
133 l-192 98 4 70 c7 108 20 214 49 377 65 368 251 810 451 1073 16 22 32 42
35 45 3 3 23 28 45 55 21 28 77 88 124 134 l85 83 38 -98 c22 -55 68 -186 105
-293z m2793 289 c262 -265 456 -613 575 -1035 18 -66 36 -133 39 -150 4 -16 9
-41 12 -55 27 -127 48 -280 59 -425 l6 -70 -148 -74 c-181 -90 -580 -306 -723
-391 -203 -121 -477 -309 -549 -376 -14 -13 -26 -22 -28 -20 -2 2 3 45 11 97
8 52 17 110 20 129 2 19 8 55 11 80 6 42 68 410 80 475 3 17 17 86 31 155 14
69 27 136 30 150 4 19 77 337 109 470 67 284 202 726 307 1002 61 158 44 153
158 38z m-1148 -3029 c41 -8 -175 -244 -258 -280 -141 -63 -272 -11 -416 165
-60 72 -79 103 -73 114 3 4 726 6 747 1z"/>
<path d="M1256 2238 c-162 -35 -220 -230 -101 -344 171 -165 427 39 312 248
-39 71 -131 113 -211 96z"/>
<path d="M3785 2238 c-99 -21 -167 -113 -159 -215 13 -182 233 -255 353 -117
29 32 51 88 51 127 0 68 -51 158 -106 186 -39 19 -99 27 -139 19z"/>
</g>
</svg>
